<?xml version="1.0" standalone="no"?>
<!DOCTYPE svg PUBLIC "-//W3C//DTD SVG 20010904//EN"
 "http://www.w3.org/TR/2001/REC-SVG-20010904/DTD/svg10.dtd">
<svg version="1.0" xmlns="http://www.w3.org/2000/svg"
 width="600.000000pt" height="600.000000pt" viewBox="0 0 600.000000 600.000000"
 preserveAspectRatio="xMidYMid meet">
<metadata>
Created by potrace 1.14, written by Peter Selinger 2001-2017
</metadata>
<g transform="translate(0.000000,600.000000) scale(0.100000,-0.100000)"
fill="#000000" stroke="none">
<path d="M0 3000 l0 -3000 3000 0 3000 0 0 3000 0 3000 -3000 0 -3000 0 0
-3000z m4520 2413 c25 -11 64 -40 87 -65 71 -78 81 -159 31 -259 -98 -198
-390 -349 -675 -349 -48 0 -69 -7 -142 -47 -691 -377 -1362 -939 -1546 -1297
-130 -252 -51 -467 247 -666 110 -74 249 -144 573 -292 429 -195 592 -288 719
-408 107 -102 131 -155 130 -280 -1 -77 -6 -108 -27 -163 -127 -328 -592 -641
-1306 -877 -277 -91 -575 -160 -696 -160 -126 0 -249 69 -295 166 -19 38 -22
57 -18 119 5 79 25 125 68 156 14 11 129 46 255 78 742 191 1325 427 1473 595
96 109 23 176 -369 342 -589 248 -683 293 -877 420 -130 85 -271 216 -337 313
-25 37 -57 100 -72 141 -70 198 -22 547 108 790 269 500 803 946 1704 1422
427 226 631 326 685 336 85 17 227 9 280 -15z"/>
</g>
</svg>
